<?xml version="1.0"?>
<svg xmlns="http://www.w3.org/2000/svg" id="Outline" viewBox="0 0 512 512" width="512" height="512"><path d="M440,288a24.027,24.027,0,0,0,24-24V40a24.027,24.027,0,0,0-24-24H72A24.027,24.027,0,0,0,48,40V264a24.027,24.027,0,0,0,24,24Zm-24-48H208v-8a8,8,0,0,0-8-8H120a8,8,0,0,0-8,8v8H96V64H416ZM128,272V240h64v32Zm320-8a8.009,8.009,0,0,1-8,8H208V256H448ZM72,32H440a8.009,8.009,0,0,1,8,8V240H432V56a8,8,0,0,0-8-8H88a8,8,0,0,0-8,8V240H64V40A8.009,8.009,0,0,1,72,32ZM64,264v-8h48v16H72A8.009,8.009,0,0,1,64,264Z"/><path d="M488,320H416a8,8,0,0,0-8-8H280a8,8,0,0,0-8,8H248a8,8,0,0,0-8-8H112a8,8,0,0,0-8,8H24a8,8,0,0,0-8,8v32a8,8,0,0,0,8,8H40V488a8,8,0,0,0,8,8H80a8,8,0,0,0,8-8V368h16v24a8,8,0,0,0,8,8h16v48a24.027,24.027,0,0,0-24,24v16a8,8,0,0,0,8,8H240a8,8,0,0,0,8-8V472a24.027,24.027,0,0,0-24-24V400h16a8,8,0,0,0,8-8V368h24v24a8,8,0,0,0,8,8h16v48a24.027,24.027,0,0,0-24,24v16a8,8,0,0,0,8,8H408a8,8,0,0,0,8-8V472a24.027,24.027,0,0,0-24-24V400h16a8,8,0,0,0,8-8V368h16V488a8,8,0,0,0,8,8h32a8,8,0,0,0,8-8V368h8a8,8,0,0,0,8-8V328A8,8,0,0,0,488,320ZM72,480H56V368H72ZM32,352V336h72v16ZM232,472v8H120v-8a8.009,8.009,0,0,1,8-8h96A8.009,8.009,0,0,1,232,472Zm-24-24H144V400h64Zm24-64H120V328H232Zm16-32V336h24v16ZM400,472v8H288v-8a8.009,8.009,0,0,1,8-8h96A8.009,8.009,0,0,1,400,472Zm-24-24H312V400h64Zm24-64H288V328H400Zm64,96H448V368h16Zm16-128H416V336h64Z"/><path d="M168,360h16a8,8,0,0,0,0-16H168a8,8,0,0,0,0,16Z"/><path d="M336,360h16a8,8,0,0,0,0-16H336a8,8,0,0,0,0,16Z"/></svg>
